<?xml version="1.0" encoding="utf-8"?>
<!-- Generator: Adobe Illustrator 22.0.0, SVG Export Plug-In . SVG Version: 6.00 Build 0)  -->
<svg version="1.1" id="图层_1" xmlns="http://www.w3.org/2000/svg" xmlns:xlink="http://www.w3.org/1999/xlink" x="0px" y="0px"
	 viewBox="0 0 1024 1024" style="enable-background:new 0 0 1024 1024;" xml:space="preserve">
<style type="text/css">
	.st0{fill:#1296DB;}
</style>
<g>
	<g>
		<path class="st0" d="M734.8,325.8c-159.7,0-289.2,129.5-289.2,289.2c0,159.7,129.5,289.2,289.2,289.2s289.2-129.5,289.2-289.2
			C1024.1,455.3,894.6,325.8,734.8,325.8L734.8,325.8z M846.3,680.5c7.2,0,13.1,6.3,13.1,13.5c0,7.2-5.9,13.5-13.1,13.5H743.4v94.3
			c0,7.2-6.3,13.1-13.5,13.1c-7.2,0-13.5-5.9-13.5-13.1V703h-95.2c-7.2,0-13.1-6.3-13.1-13.5c0-7.2,5.9-13.5,13.1-13.5h95.2v-58.7
			h-95.2c-7.2,0-13.1-8.6-13.1-15.8c0-7.2,5.9-15.8,13.1-15.8h91.1l-83.5-153.9c-3.2-7.2-1.4-13.5,5.4-16.7c7.2-3.2,14.9-0.4,18,5.9
			l82.6,155.7l82.1-154.8c3.2-6.3,11.7-8.6,18-5c6.3,3.2,8.6,10.8,5.4,17.1l-83.5,156.1h91.1c7.2,0,12.6,6.8,12.6,14
			c0,7.2-4.5,14-13.5,14v-0.9h-99.3v63.2H846.3z M846.3,680.5"/>
	</g>
	<g>
		<g>
			<path class="st0" d="M664.2,129.1H380.6c0,0,0,0,0,0h-20.8C195.7,129.1,73.3,252.6,73.3,405C22.1,441.2-0.1,497.4-0.1,562.5V820
				c0,32.3,7.2,87.9,42.3,87.9h84.5c27.8,0,50.6-31.7,60.1-54c4.4-15,9.6-42.2,22.8-40.6c132.9,15.9,217.9,23.6,308,22.9
				c-57.3-56.3-92.8-134.6-92.8-221.2c0-73.7,25.7-141.3,68.6-194.5c-147.1-2.9-304.3-9.7-304.3-18.3v-16.1
				c0-36.4,9.1-66.5,25.9-89.9c1.2-1.1,2.4-2.2,3.5-3.5c14.7-17.6,33.3-32.4,57.3-42.7c25.1-10.1,55.1-15.2,89-15.2h274.7
				c0,0,0,0,0,0h19.7c45.2,0,83.3,9.1,112.4,26.9c13.5,10.1,27.6,24,43,42.9c0,0,0,0,0,0c2.4,4,4.6,8.2,6.6,12.5
				c49.2,14.2,93.3,40.3,129.2,74.9C943.6,245.7,823.6,129.1,664.2,129.1z M277.9,686.5c16.1,28.9-11.1,54.5-22.3,54.5H126
				c-23.4,0-20.6-40-20.6-62.3v-79.5c0-11.1,16.1-18.9,17.8-17.2C192.8,587.5,246.2,631.4,277.9,686.5z M867.1,895.6
				c8.9,7.4,19.1,12.3,30.1,12.3h84.5c35,0,42.3-55.6,42.3-87.9v-92.9C995.3,801.4,938.7,861.8,867.1,895.6z"/>
		</g>
	</g>
</g>
</svg>
