<?xml version="1.0" standalone="no"?><!DOCTYPE svg PUBLIC "-//W3C//DTD SVG 1.1//EN" "http://www.w3.org/Graphics/SVG/1.1/DTD/svg11.dtd"><svg t="1536822273804" class="icon" style="" viewBox="0 0 1024 1024" version="1.1" xmlns="http://www.w3.org/2000/svg" p-id="2073" xmlns:xlink="http://www.w3.org/1999/xlink" width="200" height="200"><defs><style type="text/css"></style></defs><path d="M663.881 339.763l274.021-0.742 0.058-13.271 0.699 0c-0.204-0.48-0.495-0.945-0.699-1.426L938.658 65l-23.776 0.044L914.3 280.41C835.9 151.374 694.321 65 532.342 65c-246.869 0-447 200.132-447 447 0 246.84 200.131 447 447 447 180.343 0 335.657-106.919 406.316-260.75l-33.176 0C836.948 835.027 695.456 929.2 532.342 929.2c-230.048 0-417.2-187.152-417.2-417.2s187.152-417.2 417.2-417.2c158.895 0 297.068 89.487 367.466 220.547l-235.868 0.64L663.881 339.763z" p-id="2074"></path></svg>