<?xml version="1.0" encoding="utf-8"?>
<!-- Generator: Adobe Illustrator 22.0.0, SVG Export Plug-In . SVG Version: 6.00 Build 0)  -->
<svg version="1.1" id="图层_1" xmlns="http://www.w3.org/2000/svg" xmlns:xlink="http://www.w3.org/1999/xlink" x="0px" y="0px"
	 viewBox="0 0 1024 1024" style="enable-background:new 0 0 1024 1024;" xml:space="preserve">
<style type="text/css">
	.st0{fill:#E6320E;}
</style>
<g>
	<g>
		<path class="st0" d="M566.8,529.9c-162.4-1.7-377.8-9.4-377.8-19.4v-16.1c0-99.6,67.8-151.3,175.7-151.3h274.7
			c71.2,0,111.7-8,175,69.8c35.4,43.5,76.9,22.5,122.5,51.4c-27.2-129-147.4-226.8-293.7-226.8H359.8
			c-164,0-286.4,123.5-286.4,275.9C22.2,549.4,0,605.6,0,670.7v257.5c0,32.3,7.2,87.9,42.3,87.9h84.5c27.8,0,50.6-31.7,60.1-54
			c4.4-15,9.6-42.2,22.8-40.6c253.2,30.3,332.4,31,604.7,0C792.8,924,503.4,598.3,566.8,529.9z M255.7,849.2H126.1
			c-23.4,0-20.6-40-20.6-62.3v-79.5c0-11.1,16.1-18.9,17.8-17.2c69.5,5.6,122.9,49.5,154.6,104.6
			C294.1,823.6,266.8,849.2,255.7,849.2L255.7,849.2z M255.7,849.2"/>
	</g>
	<g>
		<path class="st0" d="M626.8,924.6c70.1-1.1,139.7,1.9,187.6-3.1c11.1,7.2,18.3,25.6,22.8,40.6c9.5,22.3,32.3,54,60.1,54h84.5
			c35,0,42.3-55.6,42.3-87.9V670.7c0-65.1-22.2-121.2-73.4-157.4c0-152.4-122.3-275.9-286.4-275.9H380.6
			c-146.3,0-272.8,96.4-300.1,225.4c42.8-27.1,72-44.4,121.9-52.5c6.3-1,11.9-4.5,16-9.4c32-38.2,82.1-63.1,166.1-57.9h274.7
			c107.9,0,175.7,51.7,175.7,151.3v16.1c0,10-171.3,16.8-333.7,18.4C564.6,597.3,644,880.7,626.8,924.6z M768.3,849.2
			c-11.1,0-38.4-25.6-22.3-54.5c31.7-55.1,85.1-99,154.6-104.6c1.7-1.7,17.8,6.1,17.8,17.2v79.5c0,22.3,2.8,62.3-20.6,62.3H768.3
			L768.3,849.2z M768.3,849.2"/>
	</g>
</g>
<path class="st0" d="M988.8,158.9l0.1-12.8c8-10.4,35.5-18.5,35.5-18.5v-19h-44.7V83.5h-15.9c-9.4-13.1-13.5-17.2-39.8-19
	c-26.3-1.8-37.4,19-37.4,19H865l0,25.1h-46.3v18.7c19.6,0,33.6,18.5,33.6,18.5l0,13.1h12.7v8l-46.3,0.2v22.2
	c26.7,2.1,33.1,17.5,33.1,17.5v15l13.4,0.1l0,7.5h-46.5v18.4c25.7,6.4,33.8,21.7,33.8,21.7v14.4h12.3c0,0,11.8,12.7,30.2,15.4V314
	h55.6v-14.7c19.8-3.2,29.6-15.5,29.6-15.5h9.8l-0.1-14.1c11-13.8,34.4-18,34.4-18v-22.3h-48v-7.8h12.9c0,0,0.1-14.2,0.2-14.4
	c10.8-12.6,34.9-17.7,34.9-17.7v-18.8h-44.7v-12H988.8z M921.6,290.9c-15.4,0-27.9-12.5-27.9-27.9c0-15.4,12.5-27.9,27.9-27.9
	c15.4,0,27.9,12.5,27.9,27.9C949.5,278.5,937,290.9,921.6,290.9L921.6,290.9z M921.6,223.9c-15.4,0-27.9-12.5-27.9-27.9
	c0-15.4,12.5-27.9,27.9-27.9c15.4,0,27.9,12.5,27.9,27.9C949.5,211.4,937,223.9,921.6,223.9L921.6,223.9z M922.2,158.2
	c-15.4,0-27.9-12.5-27.9-27.9c0-15.4,12.5-27.9,27.9-27.9c15.4,0,27.9,12.5,27.9,27.9C950.1,145.7,937.6,158.2,922.2,158.2
	L922.2,158.2z M922.2,158.2"/>
</svg>
