<?xml version="1.0" standalone="no"?><!DOCTYPE svg PUBLIC "-//W3C//DTD SVG 1.1//EN" "http://www.w3.org/Graphics/SVG/1.1/DTD/svg11.dtd"><svg t="1542251916791" class="icon" style="" viewBox="0 0 1024 1024" version="1.1" xmlns="http://www.w3.org/2000/svg" p-id="6201" xmlns:xlink="http://www.w3.org/1999/xlink" width="128" height="128"><defs><style type="text/css"></style></defs><path d="M510.7 96C281.8 96 96.2 281.6 96.2 510.5S281.8 925 510.7 925s414.5-185.6 414.5-414.5S739.7 96 510.7 96zM157 508.6c0.2-141.7 85.2-269.6 215.7-324.7 43.7-18.5 90.6-27.9 138-27.8 87.5 0.1 167.5 32.1 229.1 84.9L241.9 738.8c-53.1-61.9-85.1-142.3-84.9-230.2z m352.6 353.7c-85.5-0.1-163.9-30.7-224.9-81.4L782 283.6c50.9 61.3 81.5 140.2 81.4 226.1-0.4 195.1-158.8 352.9-353.8 352.6z" p-id="6202"></path></svg>