<?xml version="1.0" standalone="no"?><!DOCTYPE svg PUBLIC "-//W3C//DTD SVG 1.1//EN" "http://www.w3.org/Graphics/SVG/1.1/DTD/svg11.dtd"><svg t="1542252075104" class="icon" style="" viewBox="0 0 1024 1024" version="1.1" xmlns="http://www.w3.org/2000/svg" p-id="6464" xmlns:xlink="http://www.w3.org/1999/xlink" width="128" height="128"><defs><style type="text/css"></style></defs><path d="M512 0a512 512 0 1 0 512 512A512.647282 512.647282 0 0 0 512 0z m0 958.624526a447.271808 447.271808 0 1 1 447.271808-447.271808 447.271808 447.271808 0 0 1-447.271808 447.271808z"  p-id="6465"></path><path d="M273.152971 512m-39.484197 0a39.484197 39.484197 0 1 0 78.968394 0 39.484197 39.484197 0 1 0-78.968394 0Z"  p-id="6466"></path><path d="M512 512m-39.484197 0a39.484197 39.484197 0 1 0 78.968394 0 39.484197 39.484197 0 1 0-78.968394 0Z"  p-id="6467"></path><path d="M750.199747 512m-39.484197 0a39.484197 39.484197 0 1 0 78.968394 0 39.484197 39.484197 0 1 0-78.968394 0Z"  p-id="6468"></path></svg>